<?xml version="1.0" encoding="utf-8"?>
<!-- Generator: Adobe Illustrator 16.0.3, SVG Export Plug-In . SVG Version: 6.00 Build 0)  -->
<!DOCTYPE svg PUBLIC "-//W3C//DTD SVG 1.1//EN" "http://www.w3.org/Graphics/SVG/1.1/DTD/svg11.dtd">
<svg version="1.1" xmlns="http://www.w3.org/2000/svg" xmlns:xlink="http://www.w3.org/1999/xlink" x="0px" y="0px"
	 width="484.75px" height="44px" viewBox="0 0 484.75 44" enable-background="new 0 0 484.75 44" xml:space="preserve">
<g id="Layer_1" display="none">
	
		<image display="inline" overflow="visible" width="2354" height="263" xlink:href="../../../../Downloads/ppe-black.png"  transform="matrix(0.1971 0 0 0.1971 5 -5)">
	</image>
</g>
<g id="Layer_4">
	<g>
		<path d="M19.499,19.595c1.472,0,2.853,0.119,4.143,0.357c1.29,0.238,2.417,0.646,3.38,1.224c0.963,0.579,1.721,1.354,2.276,2.325
			c0.554,0.972,0.832,2.181,0.832,3.627c0,1.447-0.277,2.65-0.832,3.611c-0.555,0.961-1.313,1.731-2.276,2.31
			c-0.963,0.579-2.09,0.992-3.38,1.24c-1.291,0.248-2.671,0.372-4.143,0.372H6.523v7.905h-3.98c-0.454,0-0.841-0.181-1.158-0.542
			c-0.318-0.361-0.477-0.801-0.477-1.317V19.595h3.244h2.372H19.499z M19.499,32.584c0.818,0,1.585-0.093,2.303-0.279
			c0.718-0.186,1.349-0.496,1.895-0.93c0.545-0.434,0.972-1.002,1.281-1.705c0.309-0.702,0.463-1.56,0.463-2.573
			c0-1.012-0.155-1.865-0.463-2.557c-0.31-0.692-0.736-1.256-1.281-1.689c-0.545-0.434-1.177-0.744-1.895-0.93
			c-0.718-0.186-1.485-0.279-2.303-0.279H6.523v10.943H19.499z"/>
		<path d="M38.089,34.878c-0.309,0-0.568,0.011-0.777,0.031c-0.209,0.021-0.409,0.093-0.6,0.217c-0.191,0.124-0.391,0.315-0.6,0.573
			c-0.209,0.259-0.459,0.615-0.75,1.07c-0.309,0.455-0.672,1.013-1.09,1.674c-0.418,0.662-0.827,1.292-1.227,1.891
			c-0.473,0.724-0.954,1.468-1.445,2.232h-3.298l14.938-22.971h7.224l14.91,22.971h-6.923l-4.961-7.688H38.089z M38.252,32.336H51.8
			l-6.76-10.447L38.252,32.336z"/>
		<path d="M81.621,31.22v11.346h-3.98c-0.455,0-0.841-0.181-1.159-0.542c-0.318-0.361-0.477-0.801-0.477-1.317v-7.967l-9.54-13.144
			h6.487l7.169,10.292l8.559-10.292h2.48L81.621,31.22z"/>
		<path d="M110.133,19.595v22.971h-3.98c-0.454,0-0.841-0.181-1.158-0.542c-0.318-0.361-0.477-0.801-0.477-1.317V19.595H110.133z"/>
	</g>
	<g>
		<path d="M174.909,19.361v22.971h-4.118c-0.489,0-0.898-0.181-1.227-0.542c-0.33-0.361-0.494-0.801-0.494-1.317v-9.579h-16.925
			c-0.47,0-0.87,0.181-1.199,0.542c-0.33,0.362-0.494,0.801-0.494,1.317v9.579h-4.119c-0.47,0-0.87-0.181-1.199-0.542
			c-0.329-0.361-0.494-0.801-0.494-1.317V19.361h5.811v9.455h18.617v-9.455H174.909z"/>
		<path d="M184.669,19.361v22.971h-4.119c-0.47,0-0.87-0.181-1.199-0.542c-0.329-0.361-0.494-0.801-0.494-1.317V19.361H184.669z"/>
		<path d="M215.077,40.317v2.015H191.89c-0.451,0-0.875-0.093-1.269-0.279c-0.395-0.186-0.743-0.444-1.044-0.775
			c-0.301-0.33-0.536-0.713-0.705-1.147c-0.169-0.434-0.254-0.899-0.254-1.395V19.361h5.839v19.096c0,0.517,0.165,0.956,0.494,1.317
			c0.329,0.362,0.729,0.542,1.199,0.542H215.077z"/>
		<path d="M225.147,30.894c-0.489,0-0.893,0.181-1.213,0.542c-0.32,0.362-0.479,0.801-0.479,1.317v5.642
			c0,0.517,0.16,0.956,0.479,1.317c0.32,0.362,0.724,0.542,1.213,0.542h20.338v2.077h-24.598c-0.451,0-0.875-0.093-1.269-0.279
			c-0.395-0.186-0.743-0.444-1.044-0.775c-0.301-0.33-0.536-0.713-0.705-1.147c-0.169-0.434-0.254-0.899-0.254-1.395V19.361h26.628
			v2.077h-20.79v7.378h19.802v2.077H225.147z"/>
		<path d="M267.431,42.271l-8.293-9.517l-9.337,9.517h-2.341l10.494-10.881l-10.494-12.028h6.714l7.531,8.804l8.519-8.804h2.792
			l-10.126,10.23l10.804,12.679H267.431z"/>
		<path d="M275.667,30.832c0-1.674,0.451-3.213,1.354-4.619c0.903-1.405,2.13-2.635,3.681-3.689
			c1.552-1.054,3.366-1.901,5.444-2.542c2.078-0.64,4.292-1.043,6.643-1.209c2.275-0.144,4.386-0.108,6.333,0.108
			c1.946,0.217,3.634,0.491,5.063,0.822c1.673,0.372,3.197,0.827,4.57,1.364v3.689c-1.486-0.847-3.094-1.591-4.824-2.232
			c-0.733-0.268-1.528-0.527-2.384-0.775c-0.855-0.248-1.758-0.455-2.708-0.62c-0.95-0.165-1.933-0.279-2.948-0.341
			c-1.016-0.062-2.05-0.051-3.103,0.031c-1.505,0.124-2.915,0.455-4.231,0.992c-1.316,0.538-2.463,1.245-3.441,2.124
			s-1.753,1.901-2.327,3.069c-0.574,1.168-0.86,2.444-0.86,3.829c0,1.385,0.287,2.661,0.86,3.829s1.349,2.191,2.327,3.069
			c0.978,0.879,2.125,1.592,3.441,2.139c1.316,0.548,2.727,0.883,4.231,1.007c1.053,0.104,2.087,0.119,3.103,0.046
			c1.015-0.072,1.998-0.191,2.948-0.356c0.949-0.165,1.852-0.372,2.708-0.62c0.856-0.248,1.65-0.506,2.384-0.775
			c1.73-0.64,3.338-1.395,4.824-2.263v3.72c-1.373,0.538-2.896,0.992-4.57,1.364c-1.429,0.331-3.117,0.604-5.063,0.821
			s-4.058,0.243-6.333,0.078c-2.351-0.145-4.565-0.542-6.643-1.194c-2.078-0.651-3.893-1.503-5.444-2.557
			c-1.551-1.054-2.778-2.284-3.681-3.689C276.119,34.045,275.667,32.505,275.667,30.832z"/>
		<path d="M343.535,19.361v22.971h-4.118c-0.489,0-0.898-0.181-1.227-0.542c-0.33-0.361-0.494-0.801-0.494-1.317v-9.579h-16.925
			c-0.47,0-0.87,0.181-1.199,0.542c-0.33,0.362-0.494,0.801-0.494,1.317v9.579h-4.119c-0.47,0-0.87-0.181-1.199-0.542
			c-0.329-0.361-0.494-0.801-0.494-1.317V19.361h5.811v9.455h18.617v-9.455H343.535z"/>
		<path d="M356.201,34.645c-0.32,0-0.588,0.011-0.804,0.031c-0.216,0.021-0.423,0.093-0.621,0.217
			c-0.197,0.124-0.404,0.315-0.62,0.573c-0.217,0.259-0.476,0.615-0.776,1.07c-0.32,0.455-0.696,1.013-1.128,1.674
			c-0.433,0.662-0.856,1.292-1.27,1.891c-0.489,0.724-0.987,1.468-1.495,2.232h-3.414l15.458-22.971h7.475l15.43,22.971h-7.165
			l-5.134-7.688H356.201z M356.37,32.103h14.02l-6.996-10.447L356.37,32.103z"/>
		<path d="M412.701,19.361v22.971h-0.367c-0.32,0-0.606-0.041-0.86-0.124c-0.254-0.083-0.513-0.207-0.776-0.372
			c-0.263-0.165-0.545-0.367-0.846-0.604c-0.301-0.237-0.639-0.511-1.015-0.821c-0.132-0.104-0.508-0.403-1.128-0.899
			c-0.621-0.496-1.396-1.111-2.327-1.845c-0.931-0.733-1.97-1.55-3.117-2.449c-1.147-0.899-2.313-1.814-3.498-2.744
			c-2.765-2.17-5.867-4.598-9.309-7.285v17.143h-2.482V19.361h2.482l20.761,16.399v0.031v-0.031V19.361H412.701z"/>
		<path d="M446.381,34.675c0-0.516-0.165-0.956-0.494-1.317c-0.33-0.361-0.729-0.542-1.199-0.542h-5.049v-2.077h12.13v1.147v1.395
			v6.851c-1.73,0.579-3.592,1.075-5.585,1.488c-0.846,0.186-1.772,0.362-2.778,0.527c-1.006,0.166-2.059,0.31-3.159,0.434
			c-1.101,0.124-2.243,0.217-3.428,0.279c-1.185,0.062-2.388,0.072-3.61,0.031c-2.37-0.062-4.594-0.408-6.671-1.039
			c-2.078-0.63-3.893-1.488-5.444-2.573c-1.552-1.085-2.774-2.345-3.667-3.782c-0.894-1.436-1.34-2.992-1.34-4.666
			s0.446-3.213,1.34-4.619c0.893-1.405,2.115-2.635,3.667-3.689c1.551-1.054,3.366-1.901,5.444-2.542
			c2.078-0.64,4.302-1.043,6.671-1.209c2.275-0.144,4.386-0.108,6.333,0.108c1.946,0.217,3.634,0.491,5.063,0.822
			c1.673,0.372,3.188,0.827,4.542,1.364v3.689c-1.486-0.847-3.094-1.591-4.824-2.232c-0.733-0.268-1.528-0.527-2.383-0.775
			c-0.856-0.248-1.759-0.455-2.708-0.62c-0.95-0.165-1.932-0.279-2.948-0.341s-2.041-0.051-3.075,0.031
			c-1.505,0.124-2.915,0.455-4.231,0.992c-1.316,0.538-2.468,1.245-3.455,2.124s-1.768,1.901-2.341,3.069
			c-0.574,1.168-0.86,2.444-0.86,3.829c0,1.385,0.286,2.666,0.86,3.844c0.573,1.178,1.354,2.207,2.341,3.085
			s2.139,1.586,3.455,2.123c1.316,0.538,2.727,0.868,4.231,0.992c1.786,0.145,3.474,0.114,5.063-0.093
			c1.589-0.207,2.985-0.465,4.188-0.775c1.411-0.372,2.717-0.806,3.921-1.302V34.675z"/>
		<path d="M463.249,30.894c-0.489,0-0.893,0.181-1.213,0.542c-0.32,0.362-0.479,0.801-0.479,1.317v5.642
			c0,0.517,0.16,0.956,0.479,1.317c0.32,0.362,0.724,0.542,1.213,0.542h20.339v2.077H458.99c-0.451,0-0.875-0.093-1.269-0.279
			c-0.395-0.186-0.743-0.444-1.044-0.775c-0.301-0.33-0.536-0.713-0.705-1.147c-0.169-0.434-0.254-0.899-0.254-1.395V19.361h26.628
			v2.077h-20.789v7.378h19.803v2.077H463.249z"/>
	</g>
</g>
<g id="Layer_3">
	<linearGradient id="SVGID_1_" gradientUnits="userSpaceOnUse" x1="117.6216" y1="2.6665" x2="117.6216" y2="34.0703">
		<stop  offset="0" style="stop-color:#5D85FF"/>
		<stop  offset="0.0219" style="stop-color:#547DF7"/>
		<stop  offset="0.0874" style="stop-color:#3E6BE5"/>
		<stop  offset="0.1502" style="stop-color:#3160DA"/>
		<stop  offset="0.2069" style="stop-color:#2C5CD6"/>
		<stop  offset="0.2822" style="stop-color:#2153BD"/>
		<stop  offset="0.3836" style="stop-color:#154AA2"/>
		<stop  offset="0.4945" style="stop-color:#0C438D"/>
		<stop  offset="0.6183" style="stop-color:#053E7E"/>
		<stop  offset="0.7654" style="stop-color:#013B76"/>
		<stop  offset="0.9951" style="stop-color:#003A73"/>
	</linearGradient>
	<path fill="url(#SVGID_1_)" d="M109.228,33.496c1.452,0.165,2.95,0.25,4.481,0.25c13.369,0,24.208-6.562,24.208-14.656
		c0-8.094-10.84-14.863-24.208-14.656c-8.404,0.13-14.527,2.831-18.257,5.4l-1.793,1.185c6.235-5.963,14.508-8.352,24.044-8.352
		c13.204,0,23.881,6.681,23.881,15.419c0,8.311-13.203,15.82-25.43,15.981c-2.665,0.036-5.237-0.237-7.662-0.679L109.228,33.496z"/>
	<linearGradient id="SVGID_2_" gradientUnits="userSpaceOnUse" x1="115.27" y1="4.2324" x2="115.27" y2="33.9082">
		<stop  offset="0" style="stop-color:#EA7882"/>
		<stop  offset="0.2703" style="stop-color:#D25863"/>
		<stop  offset="0.5473" style="stop-color:#BF3F4A"/>
		<stop  offset="0.7988" style="stop-color:#B42F3B"/>
		<stop  offset="1" style="stop-color:#B02A36"/>
	</linearGradient>
	<path fill="url(#SVGID_2_)" d="M110.299,33.63c0.757,0.044,1.524,0.073,2.299,0.066c12.288-0.121,22.831-7.228,23.214-14.049
		c0.434-7.739-10.15-13.898-23.198-13.898c-8.971,0-16.79,2.849-20.791,7.224l0.181-0.207c4.318-4.94,12.391-8.533,22.234-8.533
		c13.554,0,24.476,6.52,24.476,14.737s-12.271,14.817-24.436,14.938c-1.238,0.012-2.412-0.119-3.601-0.226L110.299,33.63z"/>
	<linearGradient id="SVGID_3_" gradientUnits="userSpaceOnUse" x1="113.9604" y1="33.7456" x2="113.9604" y2="5.2964">
		<stop  offset="0" style="stop-color:#EA7882"/>
		<stop  offset="0.2703" style="stop-color:#D25863"/>
		<stop  offset="0.5473" style="stop-color:#BF3F4A"/>
		<stop  offset="0.7988" style="stop-color:#B42F3B"/>
		<stop  offset="1" style="stop-color:#B02A36"/>
	</linearGradient>
	<path fill="url(#SVGID_3_)" d="M91.886,12.884c3.869-4.032,11.098-6.533,19.378-6.533c12.356,0,21.915,5.889,21.915,13.341
		c0,7.45-11.289,13.813-21.956,13.813c-0.492,0-1.471-0.041-1.955-0.06l0.774,0.101c0.952,0.071,1.665,0.2,2.649,0.2
		c12.862,0,22.934-7.759,23.331-14.476c0.456-7.704-10.489-13.974-23.351-13.974c-9.085,0-16.936,3.021-20.774,7.574L91.886,12.884z
		"/>
	<ellipse fill="#FDE326" cx="125.966" cy="14.331" rx="1.865" ry="1.838"/>
	
		<linearGradient id="SVGID_4_" gradientUnits="userSpaceOnUse" x1="142.5391" y1="34.2139" x2="141.662" y2="32.0657" gradientTransform="matrix(1.0491 0.0405 -0.0385 0.9993 -21.9497 -25.0397)">
		<stop  offset="0" style="stop-color:#FDE326;stop-opacity:0"/>
		<stop  offset="0.4828" style="stop-color:#FDE328;stop-opacity:0.7"/>
		<stop  offset="0.5331" style="stop-color:#FDE430;stop-opacity:0.7292"/>
		<stop  offset="0.6092" style="stop-color:#FDE744;stop-opacity:0.7733"/>
		<stop  offset="0.7015" style="stop-color:#FEEB66;stop-opacity:0.8269"/>
		<stop  offset="0.8064" style="stop-color:#FEF195;stop-opacity:0.8877"/>
		<stop  offset="0.9205" style="stop-color:#FFF9D1;stop-opacity:0.9539"/>
		<stop  offset="1" style="stop-color:#FFFFFF"/>
	</linearGradient>
	<path fill="url(#SVGID_4_)" d="M127.581,14.25c-0.033,0.841-0.706-0.68-1.604-0.715c-0.897-0.033-1.677,1.434-1.645,0.591
		c0.033-0.842,0.787-1.497,1.684-1.463C126.913,12.698,127.614,13.409,127.581,14.25z"/>
	
		<linearGradient id="SVGID_5_" gradientUnits="userSpaceOnUse" x1="203.4619" y1="499.6318" x2="202.5867" y2="497.4882" gradientTransform="matrix(1.051 -0.1976 -0.1876 -0.9824 6.0611 544.8378)">
		<stop  offset="0" style="stop-color:#FDE326;stop-opacity:0"/>
		<stop  offset="0.4828" style="stop-color:#FDE328;stop-opacity:0.7"/>
		<stop  offset="0.5331" style="stop-color:#FDE430;stop-opacity:0.7292"/>
		<stop  offset="0.6092" style="stop-color:#FDE744;stop-opacity:0.7733"/>
		<stop  offset="0.7015" style="stop-color:#FEEB66;stop-opacity:0.8269"/>
		<stop  offset="0.8064" style="stop-color:#FEF195;stop-opacity:0.8877"/>
		<stop  offset="0.9205" style="stop-color:#FFF9D1;stop-opacity:0.9539"/>
		<stop  offset="1" style="stop-color:#FFFFFF"/>
	</linearGradient>
	<path fill="url(#SVGID_5_)" d="M127.588,14.264c-0.16-0.828-0.609,0.777-1.508,0.944c-0.899,0.166-1.907-1.169-1.747-0.341
		c0.161,0.828,1.02,1.363,1.918,1.197C127.151,15.899,127.75,15.092,127.588,14.264z"/>
	<ellipse fill="#FDE326" cx="120.77" cy="14.392" rx="1.864" ry="1.837"/>
	
		<linearGradient id="SVGID_6_" gradientUnits="userSpaceOnUse" x1="137.5957" y1="34.4741" x2="136.7187" y2="32.3259" gradientTransform="matrix(1.0491 0.0405 -0.0385 0.9993 -21.9497 -25.0397)">
		<stop  offset="0" style="stop-color:#FDE326;stop-opacity:0"/>
		<stop  offset="0.4828" style="stop-color:#FDE328;stop-opacity:0.7"/>
		<stop  offset="0.5331" style="stop-color:#FDE430;stop-opacity:0.7292"/>
		<stop  offset="0.6092" style="stop-color:#FDE744;stop-opacity:0.7733"/>
		<stop  offset="0.7015" style="stop-color:#FEEB66;stop-opacity:0.8269"/>
		<stop  offset="0.8064" style="stop-color:#FEF195;stop-opacity:0.8877"/>
		<stop  offset="0.9205" style="stop-color:#FFF9D1;stop-opacity:0.9539"/>
		<stop  offset="1" style="stop-color:#FFFFFF"/>
	</linearGradient>
	<path fill="url(#SVGID_6_)" d="M122.385,14.311c-0.034,0.843-0.708-0.68-1.604-0.714c-0.897-0.035-1.679,1.433-1.645,0.59
		c0.033-0.842,0.787-1.497,1.684-1.462C121.717,12.758,122.418,13.469,122.385,14.311z"/>
	
		<linearGradient id="SVGID_7_" gradientUnits="userSpaceOnUse" x1="198.6792" y1="500.5332" x2="197.804" y2="498.3896" gradientTransform="matrix(1.051 -0.1976 -0.1876 -0.9824 6.0611 544.8378)">
		<stop  offset="0" style="stop-color:#FDE326;stop-opacity:0"/>
		<stop  offset="0.4828" style="stop-color:#FDE328;stop-opacity:0.7"/>
		<stop  offset="0.5331" style="stop-color:#FDE430;stop-opacity:0.7292"/>
		<stop  offset="0.6092" style="stop-color:#FDE744;stop-opacity:0.7733"/>
		<stop  offset="0.7015" style="stop-color:#FEEB66;stop-opacity:0.8269"/>
		<stop  offset="0.8064" style="stop-color:#FEF195;stop-opacity:0.8877"/>
		<stop  offset="0.9205" style="stop-color:#FFF9D1;stop-opacity:0.9539"/>
		<stop  offset="1" style="stop-color:#FFFFFF"/>
	</linearGradient>
	<path fill="url(#SVGID_7_)" d="M122.393,14.325c-0.16-0.829-0.609,0.777-1.508,0.943c-0.899,0.167-1.907-1.168-1.747-0.341
		c0.161,0.828,1.019,1.364,1.918,1.197C121.955,15.958,122.554,15.152,122.393,14.325z"/>
	<ellipse fill="#FDE326" cx="115.268" cy="14.271" rx="1.865" ry="1.837"/>
	
		<linearGradient id="SVGID_8_" gradientUnits="userSpaceOnUse" x1="132.355" y1="34.5664" x2="131.478" y2="32.4182" gradientTransform="matrix(1.0491 0.0405 -0.0385 0.9993 -21.9497 -25.0397)">
		<stop  offset="0" style="stop-color:#FDE326;stop-opacity:0"/>
		<stop  offset="0.4828" style="stop-color:#FDE328;stop-opacity:0.7"/>
		<stop  offset="0.5331" style="stop-color:#FDE430;stop-opacity:0.7292"/>
		<stop  offset="0.6092" style="stop-color:#FDE744;stop-opacity:0.7733"/>
		<stop  offset="0.7015" style="stop-color:#FEEB66;stop-opacity:0.8269"/>
		<stop  offset="0.8064" style="stop-color:#FEF195;stop-opacity:0.8877"/>
		<stop  offset="0.9205" style="stop-color:#FFF9D1;stop-opacity:0.9539"/>
		<stop  offset="1" style="stop-color:#FFFFFF"/>
	</linearGradient>
	<path fill="url(#SVGID_8_)" d="M116.883,14.189c-0.033,0.843-0.708-0.68-1.604-0.714c-0.898-0.033-1.678,1.433-1.645,0.591
		c0.033-0.842,0.787-1.497,1.684-1.463C116.216,12.639,116.916,13.349,116.883,14.189z"/>
	
		<linearGradient id="SVGID_9_" gradientUnits="userSpaceOnUse" x1="193.6479" y1="501.666" x2="192.7724" y2="499.5215" gradientTransform="matrix(1.051 -0.1976 -0.1876 -0.9824 6.0611 544.8378)">
		<stop  offset="0" style="stop-color:#FDE326;stop-opacity:0"/>
		<stop  offset="0.4828" style="stop-color:#FDE328;stop-opacity:0.7"/>
		<stop  offset="0.5331" style="stop-color:#FDE430;stop-opacity:0.7292"/>
		<stop  offset="0.6092" style="stop-color:#FDE744;stop-opacity:0.7733"/>
		<stop  offset="0.7015" style="stop-color:#FEEB66;stop-opacity:0.8269"/>
		<stop  offset="0.8064" style="stop-color:#FEF195;stop-opacity:0.8877"/>
		<stop  offset="0.9205" style="stop-color:#FFF9D1;stop-opacity:0.9539"/>
		<stop  offset="1" style="stop-color:#FFFFFF"/>
	</linearGradient>
	<path fill="url(#SVGID_9_)" d="M116.891,14.204c-0.16-0.828-0.609,0.777-1.508,0.943c-0.899,0.167-1.907-1.168-1.746-0.34
		c0.16,0.828,1.019,1.364,1.917,1.197C116.453,15.838,117.052,15.032,116.891,14.204z"/>
	<ellipse fill="#FDE326" cx="115.146" cy="19.39" rx="1.865" ry="1.838"/>
	
		<linearGradient id="SVGID_10_" gradientUnits="userSpaceOnUse" x1="132.4268" y1="39.687" x2="131.5493" y2="37.5379" gradientTransform="matrix(1.0491 0.0405 -0.0385 0.9993 -21.9497 -25.0397)">
		<stop  offset="0" style="stop-color:#FDE326;stop-opacity:0"/>
		<stop  offset="0.4828" style="stop-color:#FDE328;stop-opacity:0.7"/>
		<stop  offset="0.5331" style="stop-color:#FDE430;stop-opacity:0.7292"/>
		<stop  offset="0.6092" style="stop-color:#FDE744;stop-opacity:0.7733"/>
		<stop  offset="0.7015" style="stop-color:#FEEB66;stop-opacity:0.8269"/>
		<stop  offset="0.8064" style="stop-color:#FEF195;stop-opacity:0.8877"/>
		<stop  offset="0.9205" style="stop-color:#FFF9D1;stop-opacity:0.9539"/>
		<stop  offset="1" style="stop-color:#FFFFFF"/>
	</linearGradient>
	<path fill="url(#SVGID_10_)" d="M116.761,19.31c-0.033,0.842-0.708-0.68-1.604-0.714c-0.897-0.034-1.679,1.434-1.645,0.591
		c0.033-0.842,0.786-1.497,1.684-1.463S116.794,18.468,116.761,19.31z"/>
	
		<linearGradient id="SVGID_11_" gradientUnits="userSpaceOnUse" x1="192.6377" y1="496.6592" x2="191.7625" y2="494.5155" gradientTransform="matrix(1.051 -0.1976 -0.1876 -0.9824 6.0611 544.8378)">
		<stop  offset="0" style="stop-color:#FDE326;stop-opacity:0"/>
		<stop  offset="0.4828" style="stop-color:#FDE328;stop-opacity:0.7"/>
		<stop  offset="0.5331" style="stop-color:#FDE430;stop-opacity:0.7292"/>
		<stop  offset="0.6092" style="stop-color:#FDE744;stop-opacity:0.7733"/>
		<stop  offset="0.7015" style="stop-color:#FEEB66;stop-opacity:0.8269"/>
		<stop  offset="0.8064" style="stop-color:#FEF195;stop-opacity:0.8877"/>
		<stop  offset="0.9205" style="stop-color:#FFF9D1;stop-opacity:0.9539"/>
		<stop  offset="1" style="stop-color:#FFFFFF"/>
	</linearGradient>
	<path fill="url(#SVGID_11_)" d="M116.769,19.323c-0.16-0.828-0.609,0.778-1.508,0.943c-0.899,0.167-1.907-1.168-1.746-0.34
		c0.161,0.828,1.019,1.364,1.917,1.198C116.331,20.958,116.93,20.151,116.769,19.323z"/>
	<ellipse fill="#FDE326" cx="115.146" cy="24.511" rx="1.865" ry="1.837"/>
	
		<linearGradient id="SVGID_12_" gradientUnits="userSpaceOnUse" x1="132.6143" y1="44.8022" x2="131.7372" y2="42.6541" gradientTransform="matrix(1.0491 0.0405 -0.0385 0.9993 -21.9497 -25.0397)">
		<stop  offset="0" style="stop-color:#FDE326;stop-opacity:0"/>
		<stop  offset="0.4828" style="stop-color:#FDE328;stop-opacity:0.7"/>
		<stop  offset="0.5331" style="stop-color:#FDE430;stop-opacity:0.7292"/>
		<stop  offset="0.6092" style="stop-color:#FDE744;stop-opacity:0.7733"/>
		<stop  offset="0.7015" style="stop-color:#FEEB66;stop-opacity:0.8269"/>
		<stop  offset="0.8064" style="stop-color:#FEF195;stop-opacity:0.8877"/>
		<stop  offset="0.9205" style="stop-color:#FFF9D1;stop-opacity:0.9539"/>
		<stop  offset="1" style="stop-color:#FFFFFF"/>
	</linearGradient>
	<path fill="url(#SVGID_12_)" d="M116.761,24.429c-0.033,0.842-0.708-0.68-1.604-0.715c-0.897-0.034-1.679,1.434-1.645,0.591
		c0.033-0.842,0.786-1.497,1.684-1.463C116.093,22.877,116.794,23.587,116.761,24.429z"/>
	
		<linearGradient id="SVGID_13_" gradientUnits="userSpaceOnUse" x1="191.7393" y1="491.6279" x2="190.8641" y2="489.4843" gradientTransform="matrix(1.051 -0.1976 -0.1876 -0.9824 6.0611 544.8378)">
		<stop  offset="0" style="stop-color:#FDE326;stop-opacity:0"/>
		<stop  offset="0.4828" style="stop-color:#FDE328;stop-opacity:0.7"/>
		<stop  offset="0.5331" style="stop-color:#FDE430;stop-opacity:0.7292"/>
		<stop  offset="0.6092" style="stop-color:#FDE744;stop-opacity:0.7733"/>
		<stop  offset="0.7015" style="stop-color:#FEEB66;stop-opacity:0.8269"/>
		<stop  offset="0.8064" style="stop-color:#FEF195;stop-opacity:0.8877"/>
		<stop  offset="0.9205" style="stop-color:#FFF9D1;stop-opacity:0.9539"/>
		<stop  offset="1" style="stop-color:#FFFFFF"/>
	</linearGradient>
	<path fill="url(#SVGID_13_)" d="M116.769,24.443c-0.16-0.828-0.609,0.777-1.508,0.943c-0.899,0.167-1.907-1.167-1.746-0.34
		c0.161,0.828,1.019,1.365,1.917,1.197C116.331,26.077,116.93,25.271,116.769,24.443z"/>
	<ellipse fill="#FDE326" cx="120.648" cy="24.45" rx="1.865" ry="1.837"/>
	
		<linearGradient id="SVGID_14_" gradientUnits="userSpaceOnUse" x1="137.8481" y1="44.5293" x2="136.9711" y2="42.3811" gradientTransform="matrix(1.0491 0.0405 -0.0385 0.9993 -21.9497 -25.0397)">
		<stop  offset="0" style="stop-color:#FDE326;stop-opacity:0"/>
		<stop  offset="0.4828" style="stop-color:#FDE328;stop-opacity:0.7"/>
		<stop  offset="0.5331" style="stop-color:#FDE430;stop-opacity:0.7292"/>
		<stop  offset="0.6092" style="stop-color:#FDE744;stop-opacity:0.7733"/>
		<stop  offset="0.7015" style="stop-color:#FEEB66;stop-opacity:0.8269"/>
		<stop  offset="0.8064" style="stop-color:#FEF195;stop-opacity:0.8877"/>
		<stop  offset="0.9205" style="stop-color:#FFF9D1;stop-opacity:0.9539"/>
		<stop  offset="1" style="stop-color:#FFFFFF"/>
	</linearGradient>
	<path fill="url(#SVGID_14_)" d="M122.263,24.369c-0.033,0.842-0.708-0.68-1.605-0.714c-0.896-0.035-1.677,1.434-1.644,0.591
		c0.032-0.843,0.786-1.497,1.683-1.463C121.595,22.817,122.296,23.528,122.263,24.369z"/>
	
		<linearGradient id="SVGID_15_" gradientUnits="userSpaceOnUse" x1="196.8027" y1="490.6699" x2="195.9276" y2="488.5263" gradientTransform="matrix(1.051 -0.1976 -0.1876 -0.9824 6.0611 544.8378)">
		<stop  offset="0" style="stop-color:#FDE326;stop-opacity:0"/>
		<stop  offset="0.4828" style="stop-color:#FDE328;stop-opacity:0.7"/>
		<stop  offset="0.5331" style="stop-color:#FDE430;stop-opacity:0.7292"/>
		<stop  offset="0.6092" style="stop-color:#FDE744;stop-opacity:0.7733"/>
		<stop  offset="0.7015" style="stop-color:#FEEB66;stop-opacity:0.8269"/>
		<stop  offset="0.8064" style="stop-color:#FEF195;stop-opacity:0.8877"/>
		<stop  offset="0.9205" style="stop-color:#FFF9D1;stop-opacity:0.9539"/>
		<stop  offset="1" style="stop-color:#FFFFFF"/>
	</linearGradient>
	<path fill="url(#SVGID_15_)" d="M122.27,24.382c-0.16-0.828-0.609,0.779-1.508,0.944c-0.899,0.167-1.907-1.168-1.747-0.34
		c0.162,0.827,1.02,1.364,1.918,1.196C121.832,26.017,122.431,25.211,122.27,24.382z"/>
	<ellipse fill="#FDE326" cx="120.586" cy="19.39" rx="1.865" ry="1.838"/>
	
		<linearGradient id="SVGID_16_" gradientUnits="userSpaceOnUse" x1="137.6045" y1="39.4766" x2="136.7275" y2="37.3284" gradientTransform="matrix(1.0491 0.0405 -0.0385 0.9993 -21.9497 -25.0397)">
		<stop  offset="0" style="stop-color:#FDE326;stop-opacity:0"/>
		<stop  offset="0.4828" style="stop-color:#FDE328;stop-opacity:0.7"/>
		<stop  offset="0.5331" style="stop-color:#FDE430;stop-opacity:0.7292"/>
		<stop  offset="0.6092" style="stop-color:#FDE744;stop-opacity:0.7733"/>
		<stop  offset="0.7015" style="stop-color:#FEEB66;stop-opacity:0.8269"/>
		<stop  offset="0.8064" style="stop-color:#FEF195;stop-opacity:0.8877"/>
		<stop  offset="0.9205" style="stop-color:#FFF9D1;stop-opacity:0.9539"/>
		<stop  offset="1" style="stop-color:#FFFFFF"/>
	</linearGradient>
	<path fill="url(#SVGID_16_)" d="M122.201,19.31c-0.032,0.842-0.707-0.68-1.604-0.714s-1.678,1.434-1.644,0.591
		c0.033-0.842,0.786-1.497,1.684-1.463C121.534,17.758,122.235,18.468,122.201,19.31z"/>
	
		<linearGradient id="SVGID_17_" gradientUnits="userSpaceOnUse" x1="197.6338" y1="495.6533" x2="196.7586" y2="493.5097" gradientTransform="matrix(1.051 -0.1976 -0.1876 -0.9824 6.0611 544.8378)">
		<stop  offset="0" style="stop-color:#FDE326;stop-opacity:0"/>
		<stop  offset="0.4828" style="stop-color:#FDE328;stop-opacity:0.7"/>
		<stop  offset="0.5331" style="stop-color:#FDE430;stop-opacity:0.7292"/>
		<stop  offset="0.6092" style="stop-color:#FDE744;stop-opacity:0.7733"/>
		<stop  offset="0.7015" style="stop-color:#FEEB66;stop-opacity:0.8269"/>
		<stop  offset="0.8064" style="stop-color:#FEF195;stop-opacity:0.8877"/>
		<stop  offset="0.9205" style="stop-color:#FFF9D1;stop-opacity:0.9539"/>
		<stop  offset="1" style="stop-color:#FFFFFF"/>
	</linearGradient>
	<path fill="url(#SVGID_17_)" d="M122.209,19.323c-0.16-0.828-0.609,0.778-1.508,0.943c-0.898,0.167-1.907-1.168-1.746-0.34
		c0.16,0.828,1.019,1.364,1.917,1.198S122.37,20.151,122.209,19.323z"/>
	<ellipse fill="#FDE326" cx="126.027" cy="19.39" rx="1.865" ry="1.838"/>
	
		<linearGradient id="SVGID_18_" gradientUnits="userSpaceOnUse" x1="142.7827" y1="39.2676" x2="141.9053" y2="37.1185" gradientTransform="matrix(1.0491 0.0405 -0.0385 0.9993 -21.9497 -25.0397)">
		<stop  offset="0" style="stop-color:#FDE326;stop-opacity:0"/>
		<stop  offset="0.4828" style="stop-color:#FDE328;stop-opacity:0.7"/>
		<stop  offset="0.5331" style="stop-color:#FDE430;stop-opacity:0.7292"/>
		<stop  offset="0.6092" style="stop-color:#FDE744;stop-opacity:0.7733"/>
		<stop  offset="0.7015" style="stop-color:#FEEB66;stop-opacity:0.8269"/>
		<stop  offset="0.8064" style="stop-color:#FEF195;stop-opacity:0.8877"/>
		<stop  offset="0.9205" style="stop-color:#FFF9D1;stop-opacity:0.9539"/>
		<stop  offset="1" style="stop-color:#FFFFFF"/>
	</linearGradient>
	<path fill="url(#SVGID_18_)" d="M127.641,19.31c-0.032,0.842-0.707-0.68-1.604-0.714c-0.897-0.034-1.677,1.434-1.645,0.591
		c0.034-0.842,0.787-1.497,1.684-1.463C126.974,17.758,127.675,18.468,127.641,19.31z"/>
	
		<linearGradient id="SVGID_19_" gradientUnits="userSpaceOnUse" x1="202.6313" y1="494.6494" x2="201.7558" y2="492.5049" gradientTransform="matrix(1.051 -0.1976 -0.1876 -0.9824 6.0611 544.8378)">
		<stop  offset="0" style="stop-color:#FDE326;stop-opacity:0"/>
		<stop  offset="0.4828" style="stop-color:#FDE328;stop-opacity:0.7"/>
		<stop  offset="0.5331" style="stop-color:#FDE430;stop-opacity:0.7292"/>
		<stop  offset="0.6092" style="stop-color:#FDE744;stop-opacity:0.7733"/>
		<stop  offset="0.7015" style="stop-color:#FEEB66;stop-opacity:0.8269"/>
		<stop  offset="0.8064" style="stop-color:#FEF195;stop-opacity:0.8877"/>
		<stop  offset="0.9205" style="stop-color:#FFF9D1;stop-opacity:0.9539"/>
		<stop  offset="1" style="stop-color:#FFFFFF"/>
	</linearGradient>
	<path fill="url(#SVGID_19_)" d="M127.65,19.323c-0.161-0.828-0.611,0.778-1.509,0.943c-0.899,0.167-1.907-1.168-1.747-0.34
		s1.019,1.364,1.918,1.198C127.211,20.958,127.81,20.151,127.65,19.323z"/>
	<ellipse fill="#FDE326" cx="125.966" cy="24.511" rx="1.865" ry="1.837"/>
	
		<linearGradient id="SVGID_20_" gradientUnits="userSpaceOnUse" x1="142.9121" y1="44.3838" x2="142.0351" y2="42.2356" gradientTransform="matrix(1.0491 0.0405 -0.0385 0.9993 -21.9497 -25.0397)">
		<stop  offset="0" style="stop-color:#FDE326;stop-opacity:0"/>
		<stop  offset="0.4828" style="stop-color:#FDE328;stop-opacity:0.7"/>
		<stop  offset="0.5331" style="stop-color:#FDE430;stop-opacity:0.7292"/>
		<stop  offset="0.6092" style="stop-color:#FDE744;stop-opacity:0.7733"/>
		<stop  offset="0.7015" style="stop-color:#FEEB66;stop-opacity:0.8269"/>
		<stop  offset="0.8064" style="stop-color:#FEF195;stop-opacity:0.8877"/>
		<stop  offset="0.9205" style="stop-color:#FFF9D1;stop-opacity:0.9539"/>
		<stop  offset="1" style="stop-color:#FFFFFF"/>
	</linearGradient>
	<path fill="url(#SVGID_20_)" d="M127.581,24.429c-0.033,0.842-0.706-0.68-1.604-0.715c-0.897-0.034-1.677,1.434-1.645,0.591
		c0.033-0.842,0.787-1.497,1.684-1.463C126.913,22.877,127.614,23.587,127.581,24.429z"/>
	
		<linearGradient id="SVGID_21_" gradientUnits="userSpaceOnUse" x1="201.6768" y1="489.6289" x2="200.8016" y2="487.4853" gradientTransform="matrix(1.051 -0.1976 -0.1876 -0.9824 6.0611 544.8378)">
		<stop  offset="0" style="stop-color:#FDE326;stop-opacity:0"/>
		<stop  offset="0.4828" style="stop-color:#FDE328;stop-opacity:0.7"/>
		<stop  offset="0.5331" style="stop-color:#FDE430;stop-opacity:0.7292"/>
		<stop  offset="0.6092" style="stop-color:#FDE744;stop-opacity:0.7733"/>
		<stop  offset="0.7015" style="stop-color:#FEEB66;stop-opacity:0.8269"/>
		<stop  offset="0.8064" style="stop-color:#FEF195;stop-opacity:0.8877"/>
		<stop  offset="0.9205" style="stop-color:#FFF9D1;stop-opacity:0.9539"/>
		<stop  offset="1" style="stop-color:#FFFFFF"/>
	</linearGradient>
	<path fill="url(#SVGID_21_)" d="M127.588,24.443c-0.16-0.828-0.609,0.777-1.508,0.943c-0.899,0.167-1.907-1.167-1.747-0.34
		c0.161,0.828,1.02,1.365,1.918,1.197C127.151,26.077,127.75,25.271,127.588,24.443z"/>
</g>
</svg>
