<?xml version="1.0" encoding="utf-8"?>
<!-- Generator: Adobe Illustrator 16.0.3, SVG Export Plug-In . SVG Version: 6.00 Build 0)  -->
<!DOCTYPE svg PUBLIC "-//W3C//DTD SVG 1.1//EN" "http://www.w3.org/Graphics/SVG/1.1/DTD/svg11.dtd">
<svg version="1.1"
	 id="svg3121" xmlns:dc="http://purl.org/dc/elements/1.1/" xmlns:cc="http://creativecommons.org/ns#" xmlns:rdf="http://www.w3.org/1999/02/22-rdf-syntax-ns#" xmlns:svg="http://www.w3.org/2000/svg" xmlns:sodipodi="http://sodipodi.sourceforge.net/DTD/sodipodi-0.dtd" xmlns:inkscape="http://www.inkscape.org/namespaces/inkscape" sodipodi:docname="æ–°è¦ãƒ‰ã‚­ãƒ¥ãƒ¡ãƒ³ãƒˆ 2" inkscape:version="0.48.1 "
	 xmlns="http://www.w3.org/2000/svg" xmlns:xlink="http://www.w3.org/1999/xlink" x="0px" y="0px" width="31.083px" height="26.5px"
	 viewBox="0 0 31.083 26.5" enable-background="new 0 0 31.083 26.5" xml:space="preserve">
<sodipodi:namedview  showgrid="false" inkscape:cy="325.28335" inkscape:cx="557.16672" inkscape:zoom="0.1767767" borderopacity="1.0" bordercolor="#666666" pagecolor="#ffffff" id="base" inkscape:window-maximized="1" inkscape:window-y="-8" inkscape:current-layer="layer1" inkscape:document-units="px" inkscape:pageopacity="0.0" inkscape:window-x="-8" inkscape:window-height="715" inkscape:window-width="1024" inkscape:pageshadow="2">
	</sodipodi:namedview>
<g id="layer1" transform="translate(0,-544.36215)" inkscape:label="ãƒ¬ã‚¤ãƒ¤ãƒ¼ 1" inkscape:groupmode="layer">
	<g id="g3969" transform="translate(-40.591066,310.31555)">
		<path id="path3160" inkscape:connector-curvature="0" fill-opacity="0.1786" d="M54.818,236.307L41.377,258.38
			c-0.258,0.421-0.258,0.942,0,1.364c0.253,0.417,0.729,0.68,1.245,0.68h26.884c0.511,0,0.987-0.263,1.245-0.68
			c0.253-0.421,0.253-0.942,0-1.364l-13.442-22.072c-0.258-0.422-0.734-0.685-1.245-0.685S55.076,235.885,54.818,236.307
			L54.818,236.307z"/>
		<path id="path3162" inkscape:connector-curvature="0" fill="#8C0000" d="M54.796,234.904l-14.003,22.995
			c-0.269,0.439-0.269,0.981,0,1.421c0.263,0.434,0.759,0.708,1.297,0.708h28.007c0.533,0,1.028-0.274,1.297-0.708
			c0.263-0.439,0.263-0.982,0-1.421L57.39,234.904c-0.269-0.439-0.765-0.713-1.297-0.713S55.065,234.465,54.796,234.904z"/>
		<path id="path3170" inkscape:connector-curvature="0" fill="#FFFFFF" d="M55.38,241.508l-8.459,13.885
			c-0.145,0.243-0.145,0.542,0,0.78c0.145,0.243,0.418,0.393,0.713,0.393h16.913c0.294,0,0.568-0.15,0.713-0.393s0.145-0.538,0-0.78
			l-8.454-13.885c-0.145-0.243-0.419-0.393-0.713-0.393S55.525,241.265,55.38,241.508z"/>
		<path id="path3172" inkscape:connector-curvature="0" d="M55.647,256.073c-0.485-0.232-0.854-0.79-0.854-1.291
			c0-0.932,0.975-1.635,1.896-1.367c0.622,0.181,1.044,0.742,1.039,1.38c-0.004,0.542-0.239,0.941-0.718,1.222
			C56.644,256.232,56.031,256.257,55.647,256.073z M55.757,252.391c-0.061-0.033-0.203-0.149-0.317-0.257
			c-0.397-0.379-0.397-0.375-0.656-4.427c-0.23-3.602-0.232-3.658-0.133-3.917c0.222-0.582,0.718-0.837,1.543-0.793
			c0.524,0.027,0.928,0.211,1.191,0.543c0.224,0.283,0.273,0.443,0.273,0.895c0,0.492-0.314,6.518-0.359,6.887
			c-0.059,0.483-0.341,0.876-0.755,1.049C56.307,252.468,55.917,252.479,55.757,252.391L55.757,252.391z"/>
	</g>
</g>
</svg>
