<?xml version="1.0" encoding="utf-8"?>
<!-- Generator: Adobe Illustrator 16.0.3, SVG Export Plug-In . SVG Version: 6.00 Build 0)  -->
<!DOCTYPE svg PUBLIC "-//W3C//DTD SVG 1.1//EN" "http://www.w3.org/Graphics/SVG/1.1/DTD/svg11.dtd">
<svg version="1.1" id="Layer_1" xmlns="http://www.w3.org/2000/svg" xmlns:xlink="http://www.w3.org/1999/xlink" x="0px" y="0px"
	 width="97px" height="127px" viewBox="0 0 97 127" enable-background="new 0 0 97 127" xml:space="preserve">
<linearGradient id="SVGID_1_" gradientUnits="userSpaceOnUse" x1="-203.5005" y1="-447.5552" x2="-203.5005" y2="-350.5557" gradientTransform="matrix(1 0 0 -1 252 -382)">
	<stop  offset="0" style="stop-color:#E6F3FF"/>
	<stop  offset="0.1664" style="stop-color:#CFE6FE"/>
	<stop  offset="0.2884" style="stop-color:#B8DEFA"/>
	<stop  offset="0.5065" style="stop-color:#94D1F4"/>
	<stop  offset="0.7554" style="stop-color:#61BFEB"/>
	<stop  offset="1" style="stop-color:#29ABE2"/>
</linearGradient>
<path fill="url(#SVGID_1_)" d="M97,88.279C97,93.648,92.648,98,87.279,98H9.72C4.352,98,0,93.648,0,88.279V10.72
	C0,5.352,4.352,1,9.72,1h77.559C92.648,1,97,5.352,97,10.72V88.279z"/>
<g>
	<g enable-background="new    ">
		<path fill="#333333" d="M27.783,120.065v-9.689h-3.845v-1.15h9.229v1.15h-3.845v9.689H27.783z"/>
		<path fill="#333333" d="M38.835,119.055c-0.864,0.796-1.697,1.194-2.498,1.194c-0.659,0-1.206-0.207-1.641-0.619
			c-0.435-0.413-0.652-0.934-0.652-1.564c0-0.868,0.365-1.536,1.095-2.003c0.729-0.466,1.778-0.699,3.146-0.699h0.337v-0.96
			c0-0.922-0.481-1.384-1.443-1.384c-0.747,0-1.563,0.234-2.446,0.703v-1.194c0.972-0.395,1.887-0.593,2.747-0.593
			c0.884,0,1.536,0.201,1.956,0.604c0.42,0.402,0.63,1.024,0.63,1.863v3.604c0,0.826,0.254,1.238,0.762,1.238
			c0.063,0,0.156-0.01,0.278-0.029l0.103,0.799c-0.327,0.155-0.688,0.234-1.084,0.234C39.45,120.249,39.021,119.851,38.835,119.055z
			 M38.623,118.271v-2.058l-0.461-0.015c-0.801,0-1.447,0.149-1.937,0.447c-0.491,0.298-0.736,0.693-0.736,1.186
			c0,0.348,0.122,0.641,0.366,0.879c0.244,0.24,0.542,0.359,0.894,0.359C37.348,119.069,37.973,118.804,38.623,118.271z"/>
		<path fill="#333333" d="M43.017,120.065v-7.954h1.443v1.494c0.571-1.113,1.401-1.67,2.49-1.67c0.146,0,0.3,0.013,0.461,0.037
			v1.354c-0.249-0.083-0.469-0.125-0.659-0.125c-0.913,0-1.677,0.542-2.292,1.625v5.238H43.017z"/>
		<path fill="#333333" d="M49.184,122.71l0.169-1.246c0.837,0.391,1.663,0.586,2.479,0.586c1.623,0,2.436-0.861,2.436-2.585v-1.253
			c-0.25,0.527-0.605,0.938-1.067,1.23s-0.977,0.439-1.544,0.439c-0.963,0-1.726-0.345-2.288-1.036
			c-0.562-0.69-0.843-1.627-0.843-2.809c0-1.211,0.32-2.197,0.96-2.959c0.641-0.762,1.47-1.143,2.486-1.143
			c0.89,0,1.655,0.361,2.296,1.084v-0.908h1.442v5.786c0,1.245-0.065,2.167-0.194,2.765c-0.129,0.599-0.372,1.088-0.729,1.469
			c-0.63,0.669-1.613,1.003-2.951,1.003C50.918,123.134,50.033,122.992,49.184,122.71z M54.268,117.306v-3.299
			c-0.637-0.658-1.328-0.987-2.077-0.987c-0.665,0-1.187,0.266-1.563,0.797c-0.376,0.532-0.565,1.269-0.565,2.21
			c0,1.726,0.614,2.589,1.842,2.589C52.74,118.615,53.528,118.179,54.268,117.306z"/>
		<path fill="#333333" d="M64.338,119.81c-0.967,0.293-1.795,0.439-2.482,0.439c-1.178,0-2.135-0.39-2.871-1.168
			c-0.738-0.777-1.106-1.786-1.106-3.025c0-1.205,0.325-2.193,0.978-2.964s1.486-1.156,2.502-1.156c0.961,0,1.705,0.343,2.23,1.029
			c0.523,0.686,0.787,1.659,0.787,2.919l-0.008,0.439H59.35c0.211,1.885,1.136,2.826,2.776,2.826c0.601,0,1.338-0.163,2.212-0.49
			V119.81z M59.416,115.239h3.508c0-1.48-0.551-2.22-1.654-2.22C60.16,113.02,59.543,113.759,59.416,115.239z"/>
		<path fill="#333333" d="M70.41,120.065c-0.445,0.122-0.83,0.184-1.158,0.184c-0.732,0-1.303-0.21-1.713-0.631
			c-0.41-0.419-0.615-1.003-0.615-1.75v-4.673h-0.996v-1.084h0.996v-1.442l1.442-0.14v1.582h2.08v1.084h-2.08v4.409
			c0,1.04,0.449,1.561,1.348,1.561c0.19,0,0.423-0.032,0.696-0.096V120.065z"/>
	</g>
	<g enable-background="new    ">
		<path fill="#333333" d="M27.783,120.065v-9.689h-3.845v-1.15h9.229v1.15h-3.845v9.689H27.783z"/>
		<path fill="#333333" d="M38.835,119.055c-0.864,0.796-1.697,1.194-2.498,1.194c-0.659,0-1.206-0.207-1.641-0.619
			c-0.435-0.413-0.652-0.934-0.652-1.564c0-0.868,0.365-1.536,1.095-2.003c0.729-0.466,1.778-0.699,3.146-0.699h0.337v-0.96
			c0-0.922-0.481-1.384-1.443-1.384c-0.747,0-1.563,0.234-2.446,0.703v-1.194c0.972-0.395,1.887-0.593,2.747-0.593
			c0.884,0,1.536,0.201,1.956,0.604c0.42,0.402,0.63,1.024,0.63,1.863v3.604c0,0.826,0.254,1.238,0.762,1.238
			c0.063,0,0.156-0.01,0.278-0.029l0.103,0.799c-0.327,0.155-0.688,0.234-1.084,0.234C39.45,120.249,39.021,119.851,38.835,119.055z
			 M38.623,118.271v-2.058l-0.461-0.015c-0.801,0-1.447,0.149-1.937,0.447c-0.491,0.298-0.736,0.693-0.736,1.186
			c0,0.348,0.122,0.641,0.366,0.879c0.244,0.24,0.542,0.359,0.894,0.359C37.348,119.069,37.973,118.804,38.623,118.271z"/>
		<path fill="#333333" d="M43.017,120.065v-7.954h1.443v1.494c0.571-1.113,1.401-1.67,2.49-1.67c0.146,0,0.3,0.013,0.461,0.037
			v1.354c-0.249-0.083-0.469-0.125-0.659-0.125c-0.913,0-1.677,0.542-2.292,1.625v5.238H43.017z"/>
		<path fill="#333333" d="M49.184,122.71l0.169-1.246c0.837,0.391,1.663,0.586,2.479,0.586c1.623,0,2.436-0.861,2.436-2.585v-1.253
			c-0.25,0.527-0.605,0.938-1.067,1.23s-0.977,0.439-1.544,0.439c-0.963,0-1.726-0.345-2.288-1.036
			c-0.562-0.69-0.843-1.627-0.843-2.809c0-1.211,0.32-2.197,0.96-2.959c0.641-0.762,1.47-1.143,2.486-1.143
			c0.89,0,1.655,0.361,2.296,1.084v-0.908h1.442v5.786c0,1.245-0.065,2.167-0.194,2.765c-0.129,0.599-0.372,1.088-0.729,1.469
			c-0.63,0.669-1.613,1.003-2.951,1.003C50.918,123.134,50.033,122.992,49.184,122.71z M54.268,117.306v-3.299
			c-0.637-0.658-1.328-0.987-2.077-0.987c-0.665,0-1.187,0.266-1.563,0.797c-0.376,0.532-0.565,1.269-0.565,2.21
			c0,1.726,0.614,2.589,1.842,2.589C52.74,118.615,53.528,118.179,54.268,117.306z"/>
		<path fill="#333333" d="M64.338,119.81c-0.967,0.293-1.795,0.439-2.482,0.439c-1.178,0-2.135-0.39-2.871-1.168
			c-0.738-0.777-1.106-1.786-1.106-3.025c0-1.205,0.325-2.193,0.978-2.964s1.486-1.156,2.502-1.156c0.961,0,1.705,0.343,2.23,1.029
			c0.523,0.686,0.787,1.659,0.787,2.919l-0.008,0.439H59.35c0.211,1.885,1.136,2.826,2.776,2.826c0.601,0,1.338-0.163,2.212-0.49
			V119.81z M59.416,115.239h3.508c0-1.48-0.551-2.22-1.654-2.22C60.16,113.02,59.543,113.759,59.416,115.239z"/>
		<path fill="#333333" d="M70.41,120.065c-0.445,0.122-0.83,0.184-1.158,0.184c-0.732,0-1.303-0.21-1.713-0.631
			c-0.41-0.419-0.615-1.003-0.615-1.75v-4.673h-0.996v-1.084h0.996v-1.442l1.442-0.14v1.582h2.08v1.084h-2.08v4.409
			c0,1.04,0.449,1.561,1.348,1.561c0.19,0,0.423-0.032,0.696-0.096V120.065z"/>
	</g>
</g>
<g>
	<g>
		<path fill="#62696C" d="M49.225,80.127c-16.938,0-30.717-13.779-30.717-30.718c0-16.938,13.78-30.717,30.717-30.717
			c16.938,0,30.717,13.78,30.717,30.718C79.941,66.35,66.162,80.127,49.225,80.127z M49.225,22.191
			c-15.008,0-27.217,12.209-27.217,27.217c0,15.008,12.209,27.217,27.217,27.217s27.217-12.209,27.217-27.216
			C76.441,34.401,64.232,22.191,49.225,22.191z"/>
	</g>
	<g>
		<path fill="#62696C" d="M49.225,71.146c-11.984,0-21.736-9.751-21.736-21.736c0-11.985,9.751-21.736,21.736-21.736
			s21.736,9.75,21.736,21.736C70.961,61.396,61.211,71.146,49.225,71.146z M49.225,31.172c-10.056,0-18.236,8.181-18.236,18.236
			c0,10.055,8.181,18.236,18.236,18.236s18.236-8.181,18.236-18.235C67.461,39.354,59.279,31.172,49.225,31.172z"/>
	</g>
	<g>
		<path fill="#62696C" d="M49.4,61.725c-6.985,0-12.668-5.683-12.668-12.668S42.415,36.389,49.4,36.389
			c6.983,0,12.668,5.683,12.668,12.668S56.385,61.725,49.4,61.725z M49.4,39.889c-5.055,0-9.168,4.113-9.168,9.168
			c0,5.055,4.113,9.168,9.168,9.168c5.056,0,9.168-4.113,9.168-9.168C58.568,44.001,54.456,39.889,49.4,39.889z"/>
	</g>
	<g>
		<g>
			<g>
				<path fill="#62696C" d="M8.031,50.57c12,0,24,0,36,0c2.321,0,2.321-3.6,0-3.6c-12,0-24,0-36,0
					C5.71,46.972,5.71,50.57,8.031,50.57L8.031,50.57z"/>
			</g>
		</g>
	</g>
	<g>
		<g>
			<g>
				<path fill="#62696C" d="M55.031,50.57c11.667,0,23.332,0,35,0c2.32,0,2.32-3.6,0-3.6c-11.668,0-23.333,0-35,0
					C52.711,46.972,52.711,50.57,55.031,50.57L55.031,50.57z"/>
			</g>
		</g>
	</g>
	<g>
		<g>
			<g>
				<path fill="#62696C" d="M47.288,9.021c0,11.25,0,22.5,0,33.75c0,2.248,3.485,2.248,3.485,0c0-11.25,0-22.5,0-33.75
					C50.773,6.772,47.288,6.772,47.288,9.021L47.288,9.021z"/>
			</g>
		</g>
	</g>
	<g>
		<g>
			<g>
				<path fill="#62696C" d="M47.301,54.771c0,11.084,0,22.168,0,33.25c0,2.229,3.461,2.229,3.461,0c0-11.082,0-22.166,0-33.25
					C50.762,52.541,47.301,52.541,47.301,54.771L47.301,54.771z"/>
			</g>
		</g>
	</g>
</g>
<g>
	<g>
		<path fill="#C9FF2E" d="M49.193,80.355c-16.938,0-30.717-13.779-30.717-30.717s13.78-30.717,30.717-30.717
			c16.937,0,30.717,13.78,30.717,30.717C79.91,66.576,66.131,80.355,49.193,80.355z M49.193,22.421
			c-15.008,0-27.217,12.209-27.217,27.217c0,15.006,12.209,27.217,27.217,27.217c15.008,0,27.217-12.209,27.217-27.217
			S64.201,22.421,49.193,22.421z"/>
	</g>
	<g>
		<path fill="#C9FF2E" d="M49.193,71.374c-11.985,0-21.736-9.75-21.736-21.736c0-11.986,9.751-21.736,21.736-21.736
			c11.983,0,21.736,9.751,21.736,21.736C70.93,61.623,61.18,71.374,49.193,71.374z M49.193,31.402
			c-10.056,0-18.236,8.181-18.236,18.236c0,10.055,8.181,18.236,18.236,18.236c10.055,0,18.236-8.181,18.236-18.236
			C67.43,39.583,59.249,31.402,49.193,31.402z"/>
	</g>
	<g>
		<path fill="#C9FF2E" d="M49.369,61.953c-6.985,0-12.668-5.683-12.668-12.668c0-6.985,5.683-12.668,12.668-12.668
			c6.984,0,12.668,5.683,12.668,12.668C62.037,56.27,56.354,61.953,49.369,61.953z M49.369,40.117c-5.055,0-9.168,4.113-9.168,9.168
			c0,5.055,4.113,9.168,9.168,9.168c5.056,0,9.168-4.113,9.168-9.168C58.537,44.23,54.425,40.117,49.369,40.117z"/>
	</g>
	<g>
		<g>
			<g>
				<path fill="#C9FF2E" d="M8,50.8c12,0,24,0,36,0c2.321,0,2.321-3.6,0-3.6c-12,0-24,0-36,0C5.679,47.2,5.679,50.8,8,50.8L8,50.8z"
					/>
			</g>
		</g>
	</g>
	<g>
		<g>
			<g>
				<path fill="#C9FF2E" d="M55,50.8c11.667,0,23.333,0,35,0c2.32,0,2.32-3.6,0-3.6c-11.667,0-23.333,0-35,0
					C52.68,47.2,52.68,50.8,55,50.8L55,50.8z"/>
			</g>
		</g>
	</g>
	<g>
		<g>
			<g>
				<path fill="#C9FF2E" d="M47.257,9.25c0,11.25,0,22.5,0,33.75c0,2.248,3.485,2.248,3.485,0c0-11.25,0-22.5,0-33.75
					C50.743,7.002,47.257,7.002,47.257,9.25L47.257,9.25z"/>
			</g>
		</g>
	</g>
	<g>
		<g>
			<g>
				<path fill="#C9FF2E" d="M47.27,55c0,11.083,0,22.167,0,33.25c0,2.23,3.46,2.23,3.46,0c0-11.083,0-22.167,0-33.25
					C50.73,52.769,47.27,52.769,47.27,55L47.27,55z"/>
			</g>
		</g>
	</g>
</g>
</svg>
