<?xml version="1.0" encoding="utf-8"?>
<!-- Generator: Adobe Illustrator 16.0.3, SVG Export Plug-In . SVG Version: 6.00 Build 0)  -->
<!DOCTYPE svg PUBLIC "-//W3C//DTD SVG 1.1//EN" "http://www.w3.org/Graphics/SVG/1.1/DTD/svg11.dtd">
<svg version="1.1" id="Layer_1" xmlns="http://www.w3.org/2000/svg" xmlns:xlink="http://www.w3.org/1999/xlink" x="0px" y="0px"
	 width="97px" height="127px" viewBox="0 0 97 127" enable-background="new 0 0 97 127" xml:space="preserve">
<linearGradient id="SVGID_1_" gradientUnits="userSpaceOnUse" x1="-119.5005" y1="517.4443" x2="-119.5005" y2="614.4443" gradientTransform="matrix(1 0 0 1 168 -484)">
	<stop  offset="0" style="stop-color:#E6F3FF"/>
	<stop  offset="0.1664" style="stop-color:#CFE6FE"/>
	<stop  offset="0.2884" style="stop-color:#B8DEFA"/>
	<stop  offset="0.5065" style="stop-color:#94D1F4"/>
	<stop  offset="0.7554" style="stop-color:#61BFEB"/>
	<stop  offset="1" style="stop-color:#29ABE2"/>
</linearGradient>
<path fill="url(#SVGID_1_)" d="M97,88.279C97,93.648,92.648,98,87.279,98H9.72C4.352,98,0,93.648,0,88.279V10.72
	C0,5.352,4.352,1,9.72,1h77.559C92.648,1,97,5.352,97,10.72V88.279z"/>
<g>
	<text transform="matrix(1 0 0 1 23.8057 120.0654)" fill="#333333" font-family="'LucidaSansUnicode'" font-size="15">Target</text>
	<text transform="matrix(1 0 0 1 23.8057 120.0654)" fill="#333333" font-family="'LucidaSansUnicode'" font-size="15">Target</text>
</g>
<g>
	<g>
		<path fill="#62696C" d="M49.225,80.459c-16.938,0-30.717-13.779-30.717-30.717s13.78-30.717,30.717-30.717
			c16.937,0,30.717,13.78,30.717,30.718S66.162,80.459,49.225,80.459z M49.225,22.524c-15.008,0-27.217,12.209-27.217,27.217
			s12.209,27.217,27.217,27.217c15.008,0,27.217-12.209,27.217-27.216C76.441,34.734,64.232,22.524,49.225,22.524z"/>
	</g>
	<g>
		<path fill="#62696C" d="M49.225,71.479c-11.985,0-21.736-9.751-21.736-21.736c0-11.985,9.751-21.736,21.736-21.736
			c11.984,0,21.736,9.75,21.736,21.736C70.961,61.729,61.211,71.479,49.225,71.479z M49.225,31.505
			c-10.056,0-18.236,8.181-18.236,18.236c0,10.055,8.181,18.236,18.236,18.236c10.055,0,18.236-8.18,18.236-18.235
			C67.461,39.687,59.28,31.505,49.225,31.505z"/>
	</g>
	<g>
		<path fill="#62696C" d="M49.4,62.058c-6.985,0-12.668-5.683-12.668-12.668c0-6.985,5.683-12.668,12.668-12.668
			c6.984,0,12.668,5.683,12.668,12.668C62.068,56.375,56.385,62.058,49.4,62.058z M49.4,40.222c-5.055,0-9.168,4.113-9.168,9.168
			c0,5.055,4.113,9.168,9.168,9.168c5.056,0,9.168-4.113,9.168-9.168C58.568,44.334,54.456,40.222,49.4,40.222z"/>
	</g>
	<g>
		<g>
			<g>
				<path fill="#62696C" d="M8.031,50.903c12,0,24,0,36,0c2.321,0,2.321-3.6,0-3.6c-12,0-24,0-36,0
					C5.71,47.305,5.71,50.903,8.031,50.903L8.031,50.903z"/>
			</g>
		</g>
	</g>
	<g>
		<g>
			<g>
				<path fill="#62696C" d="M55.031,50.903c11.667,0,23.333,0,35,0c2.32,0,2.32-3.6,0-3.6c-11.667,0-23.333,0-35,0
					C52.711,47.305,52.711,50.903,55.031,50.903L55.031,50.903z"/>
			</g>
		</g>
	</g>
	<g>
		<g>
			<g>
				<path fill="#62696C" d="M47.288,9.354c0,11.25,0,22.5,0,33.75c0,2.248,3.485,2.248,3.485,0c0-11.25,0-22.5,0-33.75
					C50.774,7.105,47.288,7.105,47.288,9.354L47.288,9.354z"/>
			</g>
		</g>
	</g>
	<g>
		<g>
			<g>
				<path fill="#62696C" d="M47.301,55.104c0,11.083,0,22.167,0,33.25c0,2.229,3.46,2.229,3.46,0c0-11.082,0-22.166,0-33.25
					C50.762,52.874,47.301,52.874,47.301,55.104L47.301,55.104z"/>
			</g>
		</g>
	</g>
</g>
<g>
	<g>
		<path fill="#C9FF2E" d="M49.193,80.355c-16.938,0-30.717-13.779-30.717-30.717s13.78-30.717,30.717-30.717
			c16.937,0,30.717,13.78,30.717,30.717C79.91,66.576,66.131,80.355,49.193,80.355z M49.193,22.421
			c-15.008,0-27.217,12.209-27.217,27.217c0,15.006,12.209,27.217,27.217,27.217c15.008,0,27.217-12.209,27.217-27.217
			S64.201,22.421,49.193,22.421z"/>
	</g>
	<g>
		<path fill="#C9FF2E" d="M49.193,71.374c-11.985,0-21.736-9.75-21.736-21.736c0-11.986,9.751-21.736,21.736-21.736
			c11.984,0,21.736,9.751,21.736,21.736C70.93,61.623,61.18,71.374,49.193,71.374z M49.193,31.402
			c-10.056,0-18.236,8.181-18.236,18.236c0,10.055,8.181,18.236,18.236,18.236c10.055,0,18.236-8.181,18.236-18.236
			C67.43,39.583,59.249,31.402,49.193,31.402z"/>
	</g>
	<g>
		<path fill="#C9FF2E" d="M49.369,61.953c-6.985,0-12.668-5.683-12.668-12.668c0-6.985,5.683-12.668,12.668-12.668
			c6.984,0,12.668,5.683,12.668,12.668C62.037,56.27,56.354,61.953,49.369,61.953z M49.369,40.117c-5.055,0-9.168,4.113-9.168,9.168
			c0,5.055,4.113,9.168,9.168,9.168c5.056,0,9.168-4.113,9.168-9.168C58.537,44.23,54.425,40.117,49.369,40.117z"/>
	</g>
	<g>
		<g>
			<g>
				<path fill="#C9FF2E" d="M8,50.8c12,0,24,0,36,0c2.321,0,2.321-3.6,0-3.6c-12,0-24,0-36,0C5.679,47.2,5.679,50.8,8,50.8L8,50.8z"
					/>
			</g>
		</g>
	</g>
	<g>
		<g>
			<g>
				<path fill="#C9FF2E" d="M55,50.8c11.667,0,23.333,0,35,0c2.32,0,2.32-3.6,0-3.6c-11.667,0-23.333,0-35,0
					C52.68,47.2,52.68,50.8,55,50.8L55,50.8z"/>
			</g>
		</g>
	</g>
	<g>
		<g>
			<g>
				<path fill="#C9FF2E" d="M47.257,9.25c0,11.25,0,22.5,0,33.75c0,2.248,3.485,2.248,3.485,0c0-11.25,0-22.5,0-33.75
					C50.743,7.002,47.257,7.002,47.257,9.25L47.257,9.25z"/>
			</g>
		</g>
	</g>
	<g>
		<g>
			<g>
				<path fill="#C9FF2E" d="M47.27,55c0,11.083,0,22.167,0,33.25c0,2.23,3.46,2.23,3.46,0c0-11.083,0-22.167,0-33.25
					C50.73,52.769,47.27,52.769,47.27,55L47.27,55z"/>
			</g>
		</g>
	</g>
</g>
</svg>
