<?xml version="1.0" encoding="utf-8"?>
<!-- Generator: Adobe Illustrator 16.0.3, SVG Export Plug-In . SVG Version: 6.00 Build 0)  -->
<!DOCTYPE svg PUBLIC "-//W3C//DTD SVG 1.1//EN" "http://www.w3.org/Graphics/SVG/1.1/DTD/svg11.dtd">
<svg version="1.1" id="Layer_1" xmlns="http://www.w3.org/2000/svg" xmlns:xlink="http://www.w3.org/1999/xlink" x="0px" y="0px"
	 width="97px" height="127px" viewBox="0 0 97 127" enable-background="new 0 0 97 127" xml:space="preserve">
<linearGradient id="SVGID_1_" gradientUnits="userSpaceOnUse" x1="-35.4995" y1="69.5557" x2="-35.4995" y2="-27.4443" gradientTransform="matrix(1 0 0 -1 84 102)">
	<stop  offset="0" style="stop-color:#57DB63"/>
	<stop  offset="0.5434" style="stop-color:#37AD46"/>
	<stop  offset="1" style="stop-color:#19832B"/>
</linearGradient>
<path fill="url(#SVGID_1_)" d="M97,87.35c0,5.33-4.32,9.65-9.65,9.65H9.65C4.321,97,0,92.68,0,87.35V9.65C0,4.321,4.321,0,9.65,0
	h77.7C92.68,0,97,4.321,97,9.65V87.35z"/>
<g>
	<circle fill="#FFFFFF" cx="48.262" cy="48.261" r="39.526"/>
	
		<linearGradient id="SVGID_2_" gradientUnits="userSpaceOnUse" x1="-35.5532" y1="17.1216" x2="-35.5532" y2="90.5845" gradientTransform="matrix(1 0 0 -1 84 102)">
		<stop  offset="0" style="stop-color:#333333"/>
		<stop  offset="0.1982" style="stop-color:#1E1E1E"/>
		<stop  offset="0.4283" style="stop-color:#0D0D0D"/>
		<stop  offset="0.6816" style="stop-color:#030303"/>
		<stop  offset="1" style="stop-color:#000000"/>
	</linearGradient>
	<circle fill="url(#SVGID_2_)" cx="48.447" cy="48.147" r="36.732"/>
	<path fill="#FFFFFF" d="M69.243,47.221l-18.956,7.202c-0.704-0.591-1.611-0.948-2.603-0.948c-2.239,0-4.054,1.815-4.054,4.054
		c0,2.239,1.814,4.054,4.054,4.054c2.24,0,4.054-1.815,4.054-4.054c0-0.128-0.008-0.255-0.02-0.38L69.243,47.221z M47.723,58.98
		c-0.78,0-1.413-0.632-1.413-1.413c0-0.781,0.633-1.412,1.413-1.412c0.781,0,1.414,0.632,1.414,1.412
		C49.137,58.347,48.504,58.98,47.723,58.98z"/>
	<g>
		
			<line fill="none" stroke="#DF2800" stroke-width="2.6804" stroke-miterlimit="10" x1="23.53" y1="31.043" x2="30.342" y2="35.391"/>
		<line fill="none" stroke="#DF2800" stroke-width="2" stroke-miterlimit="10" x1="48" y1="17" x2="48" y2="25"/>
		
			<line fill="none" stroke="#DF2800" stroke-width="2.3826" stroke-miterlimit="10" x1="72.837" y1="31.043" x2="66.578" y2="35.391"/>
		
			<line fill="none" stroke="#DF2800" stroke-width="2.3826" stroke-miterlimit="10" x1="20.922" y1="58.291" x2="25.85" y2="55.392"/>
		
			<line fill="none" stroke="#DF2800" stroke-width="2.3826" stroke-miterlimit="10" x1="76.604" y1="59.741" x2="72.084" y2="56.842"/>
		<path fill="none" stroke="#DF2800" stroke-width="2.9782" stroke-miterlimit="10" d="M23.935,65.348
			c-3.607-4.99-5.733-11.12-5.733-17.747c0-16.744,13.574-30.318,30.318-30.318c16.746,0,30.32,13.574,30.32,30.318
			c0,6.645-2.138,12.791-5.762,17.786"/>
	</g>
</g>
<text transform="matrix(1 0 0 1 16.7632 119.6104)" fill="#333333" font-family="'LucidaSansUnicode'" font-size="16.3801">Velocity</text>
</svg>
