<?xml version="1.0" encoding="utf-8"?>
<!-- Generator: Adobe Illustrator 16.0.3, SVG Export Plug-In . SVG Version: 6.00 Build 0)  -->
<!DOCTYPE svg PUBLIC "-//W3C//DTD SVG 1.1//EN" "http://www.w3.org/Graphics/SVG/1.1/DTD/svg11.dtd">
<svg version="1.1" id="Layer_2" xmlns="http://www.w3.org/2000/svg" xmlns:xlink="http://www.w3.org/1999/xlink" x="0px" y="0px"
	 width="14px" height="14px" viewBox="0 0 14 14" enable-background="new 0 0 14 14" xml:space="preserve">
<g>
	<path fill="#FFFFFF" d="M9.643,6L9.641,4.243c0-2.319-1.765-2.632-2.502-2.614C6.271,1.65,4.626,1.875,4.603,4.154L4.575,6.266
		l-1.37-0.193L3.188,4.1c0-2.731,2.262-3.787,3.886-3.787c1.767,0,3.937,0.978,3.937,3.833L11.004,6H9.643z"/>
	<path fill="#FFFFFF" d="M12,6.419C12,6.188,11.811,6,11.578,6H2.36C2.126,6,2,6.188,2,6.419v6.161C2,12.812,2.126,13,2.36,13h9.218
		C11.811,13,12,12.812,12,12.581V6.419z M6.442,11l0.605-1.407C6.785,9.535,6.589,9.242,6.589,8.962
		c0-0.324,0.263-0.618,0.588-0.618c0.324,0,0.587,0.249,0.587,0.573c0,0.267-0.177,0.602-0.42,0.674L7.953,11H6.442z"/>
</g>
</svg>
