<?xml version="1.0" encoding="utf-8"?>
<!-- Generator: Adobe Illustrator 16.0.3, SVG Export Plug-In . SVG Version: 6.00 Build 0)  -->
<!DOCTYPE svg PUBLIC "-//W3C//DTD SVG 1.1//EN" "http://www.w3.org/Graphics/SVG/1.1/DTD/svg11.dtd">
<svg version="1.1" id="Layer_2" xmlns="http://www.w3.org/2000/svg" xmlns:xlink="http://www.w3.org/1999/xlink" x="0px" y="0px"
	 width="14px" height="14px" viewBox="0 0 14 14" enable-background="new 0 0 14 14" xml:space="preserve">
<g>
	<g>
		<path fill="#FFFFFF" d="M0.469,7.368c1.712,0,3.425,0,5.138,0c0.475,0,0.475-0.736,0-0.736c-1.712,0-3.425,0-5.138,0
			C-0.006,6.632-0.006,7.368,0.469,7.368L0.469,7.368z"/>
	</g>
</g>
<g>
	<g>
		<path fill="#FFFFFF" d="M8.394,7.369c1.702,0,3.404,0,5.106,0c0.475,0,0.475-0.737,0-0.737c-1.702,0-3.404,0-5.106,0
			C7.918,6.631,7.918,7.369,8.394,7.369L8.394,7.369z"/>
	</g>
</g>
<g>
	<g>
		<path fill="#FFFFFF" d="M7.347,5.606c0-1.661,0-3.321,0-4.981c0-0.448-0.694-0.448-0.694,0c0,1.661,0,3.321,0,4.981
			C6.653,6.054,7.347,6.054,7.347,5.606L7.347,5.606z"/>
	</g>
</g>
<g>
	<g>
		<path fill="#FFFFFF" d="M7.361,13.292c0-1.633,0-3.265,0-4.898c0-0.465-0.722-0.465-0.722,0c0,1.633,0,3.265,0,4.898
			C6.639,13.757,7.361,13.757,7.361,13.292L7.361,13.292z"/>
	</g>
</g>
<circle fill="none" stroke="#FFFFFF" stroke-width="0.7" stroke-miterlimit="10" cx="6.953" cy="6.984" r="3.422"/>
<circle fill="none" stroke="#FFFFFF" stroke-width="0.7" stroke-miterlimit="10" cx="6.875" cy="7.031" r="5"/>
<circle fill="none" stroke="#FFFFFF" stroke-width="0.7" stroke-miterlimit="10" cx="7.031" cy="7.031" r="1.906"/>
</svg>
