<?xml version="1.0" encoding="utf-8"?>
<!-- Generator: Adobe Illustrator 16.0.3, SVG Export Plug-In . SVG Version: 6.00 Build 0)  -->
<!DOCTYPE svg PUBLIC "-//W3C//DTD SVG 1.1//EN" "http://www.w3.org/Graphics/SVG/1.1/DTD/svg11.dtd">
<svg version="1.1" id="Layer_2" xmlns="http://www.w3.org/2000/svg" xmlns:xlink="http://www.w3.org/1999/xlink" x="0px" y="0px"
	 width="14px" height="14px" viewBox="0 0 14 14" enable-background="new 0 0 14 14" xml:space="preserve">
<circle fill="#FFFFFF" stroke="#F2F2F2" stroke-width="0.09" stroke-miterlimit="10" cx="6.969" cy="7" r="6.5"/>
<circle stroke="#000000" stroke-width="0.6795" stroke-miterlimit="10" cx="6.953" cy="6.984" r="5.672"/>
<circle fill="none" stroke="#FFFFFF" stroke-width="0.6037" stroke-miterlimit="10" cx="6.883" cy="7.165" r="0.633"/>
<polygon fill="#FFFFFF" points="7.479,7.373 10.188,6.229 7.299,6.694 "/>
<path fill="none" stroke="#ED1C24" stroke-width="0.6" stroke-miterlimit="10" d="M1.705,8.091c-0.078-0.364-0.118-0.74-0.118-1.127
	c0-2.949,2.381-5.339,5.317-5.339c2.936,0,5.316,2.391,5.316,5.339c0,0.451-0.055,0.889-0.161,1.307"/>
<line fill="none" stroke="#ED1C24" stroke-width="0.4848" stroke-miterlimit="10" x1="1.551" y1="7.545" x2="2.842" y2="7.354"/>
<line fill="none" stroke="#ED1C24" stroke-width="0.4817" stroke-miterlimit="10" x1="12.159" y1="7.504" x2="10.757" y2="7.367"/>
<line fill="none" stroke="#ED1C24" stroke-width="0.426" stroke-miterlimit="10" x1="7.072" y1="3.103" x2="7.065" y2="1.798"/>
<line fill="none" stroke="#ED1C24" stroke-width="0.4305" stroke-miterlimit="10" x1="3.985" y1="4.082" x2="3.025" y2="3.449"/>
<line fill="none" stroke="#ED1C24" stroke-width="0.4305" stroke-miterlimit="10" x1="10.025" y1="4.082" x2="10.984" y2="3.449"/>
</svg>
